<svg xmlns="http://www.w3.org/2000/svg" viewBox="0 0 597.45 138.47"><defs><style>.cls-1{fill:#1d1d1b;}.cls-2{fill:#3cd37c;}</style></defs><g id="Layer_2" data-name="Layer 2"><g id="Layer_1-2" data-name="Layer 1"><path class="cls-1" d="M92.12,0H86L77.53,28.73l11.73,40H65.79l-6.9,23.44H96.14l5,17.17h25.08ZM28.76,109.33H52.09L35.91,86.41Z"/><path class="cls-1" d="M124.36,68.1c0-23.27,17.65-41.23,41.39-41.23,15.15,0,28.58,8,35.3,20L180.59,58.73c-2.66-5.47-8.28-8.75-15.15-8.75-10.15,0-17.65,7.35-17.65,18.12s7.5,18.12,17.65,18.12c6.87,0,12.65-3.28,15.15-8.75l20.46,11.72c-6.72,12.18-20,20.14-35.3,20.14C142,109.33,124.36,91.37,124.36,68.1Z"/><path class="cls-1" d="M203.39,68.1c0-23.27,17.65-41.23,41.39-41.23,15.15,0,28.58,8,35.3,20L259.62,58.73C257,53.26,251.34,50,244.47,50c-10.16,0-17.65,7.35-17.65,18.12s7.49,18.12,17.65,18.12c6.87,0,12.65-3.28,15.15-8.75l20.46,11.72c-6.72,12.18-20,20.14-35.3,20.14C221,109.33,203.39,91.37,203.39,68.1Z"/><path class="cls-1" d="M326,88.41c6.4,0,11.87-2.5,15-5.94l18.75,10.78c-7.66,10.62-19.21,16.08-34.05,16.08-26.71,0-43.26-18-43.26-41.23S299.29,26.87,324,26.87c22.8,0,39.67,17.65,39.67,41.23a45,45,0,0,1-.94,9.37H307.25C310.22,85.59,317.4,88.41,326,88.41ZM340.36,60c-2.5-9.06-9.53-12.34-16.56-12.34-8.9,0-14.83,4.37-17,12.34Z"/><path class="cls-1" d="M455.4,68.1c0,23.27-16.87,41.23-37.33,41.23-10.46,0-18.11-3.59-23.27-9.52v38.57H371.37V29.06H394.8V36.4c5.16-5.94,12.81-9.53,23.27-9.53C438.53,26.87,455.4,44.83,455.4,68.1ZM432,68.1c0-11.71-7.81-19-18.58-19s-18.59,7.34-18.59,19,7.81,19.06,18.59,19.06S432,79.82,432,68.1Z"/><path class="cls-1" d="M493.9,51.55V79.19c0,6.72,5.78,7.34,16.09,6.72v21.24c-30.61,3.12-39.51-6.09-39.51-28V51.55H458V29.06h12.5V14.22l23.42-7V29.06H510V51.55Z"/><path class="cls-1" d="M597.45,29.06l-26.71,75.75c-8.74,24.83-22.64,34.67-44.51,33.57V116.52c10.93,0,16.09-3.44,19.52-13l-31.08-74.5h25.77l17.34,47.79,14.68-47.79Z"/><polygon class="cls-2" points="52.09 109.33 28.66 109.33 0 68.72 23.42 68.72 35.91 86.41 52.09 109.33"/><polygon class="cls-2" points="85.96 0 77.53 28.73 77.5 28.59 65.75 68.72 65.79 68.72 58.89 92.16 58.87 92.16 53.85 109.33 52.09 109.33 35.91 86.41 62.88 0 85.96 0"/></g></g></svg>